<svg id="img" width="100%" height="100%" fill="currentColor" stroke="none" viewBox="0 0 32 32" xmlns="http://www.w3.org/2000/svg"><path d="m22 3v4c-1.847656 0-3.613281.332031-5.265625.910156l-.527344-1.148437.902344-.402344-.8125-1.828125-3.652344 1.625.8125 1.828125.921875-.410156.511719 1.105469c-1.09375.546875-2.109375 1.21875-3.042969 1.988281l-.785156-.835938.726563-.667968-1.351563-1.476563-2.945312 2.707031 1.351562 1.476563.742188-.683594.804687.847656c-.957031 1.015625-1.78125 2.15625-2.445312 3.394532l-1.082032-.535157.449219-.882812-1.78125-.90625-1.8125 3.566406 1.78125.90625.457031-.902344 1.144532.570313c-.578125 1.492187-.945313 3.085937-1.050782 4.753906h-2.050781v6h24v-25zm2 2h2v17h-17.949219c.511719-7.273437 6.542969-13 13.949219-13h2zm-6 6.953125c-1.105469 0-2 .898438-2 2 0 .714844.382813 1.375 1 1.734375v4.3125h5v-2h-3v-2.316406c.617188-.355469 1-1.015625 1-1.730469 0-1.101562-.894531-2-2-2zm-12 12.046875h20v2h-20z"/></svg>