<svg id="img" version="1.1" viewBox="0 0 16 16" xmlns="http://www.w3.org/2000/svg" fill="currentColor" stroke="none">
	<g>
		<path d="m4.4 1.3c-.6.3-.8 1.1-.4 1.5.5-.9 1.3-.6 2.5.4.8.7 1.9.1 1.9.1s.2 1.2 1.7 1.4c1.7.2 2.3-.8 2.3-.8s.4 1 1.9.4c1.1-.4.7-1.1.7-1.1s1 0 1-.7c0-.9-1.1-.8-1.1-.8s.2-1-.9-1.1c-1-.1-1.3.5-1.3.5s-.3-1.1-1.8-1.1c-1.4 0-1.9 1.3-1.9 1.3s-.4-.6-1.6-.6c-.9 0-1.3.7-1.3.7s-1.1-.5-1.7-.1z"/>
		<path d="m12 12.1v-2.1l-4 2.1v-2.1h-2.4l-.6-7h-2l-.6 7h-2.4v6h16v-6zm-6 1.9h-4v-2h4z"/>
	</g>
	<g transform="matrix(.2086 0 0 .2086 7.337 13.38)" fill="#fff" stroke="none">
		<path d="m8.254 9.753v-19.09h12.88v2.253h-10.35v5.911h8.958v2.253h-8.958v8.672z"/>
		<path d="m22.55 9.753 5.052-7.188-4.674-6.641h2.93l2.122 3.242q0.599 0.9245 0.9635 1.549 0.5729-0.8594 1.055-1.523l2.331-3.268h2.799l-4.779 6.51 5.143 7.318h-2.878l-2.839-4.297-0.7552-1.159-3.633 5.456z"/>
	</g>
</svg>
