<svg id="img" width="100%" height="100%" fill="none" stroke="none" viewBox="0 0 72 72" xmlns="http://www.w3.org/2000/svg"><path d="m24.4876 52.1172c-.5439 2.6905-.4393 4.9935.3049 6.6602 2.0541 4.6004 7.4659 6.6766 12.0697 4.6202 2.2292-.9951 3.9378-2.7983 4.8096-5.0782.873-2.2798.8058-4.7633-.1893-6.9926-1.0976-2.4583-2.4708-4.353-5.0665-5.1028-.3095-.0891-.0393-1.1312.0839-1.4273l.8396-2.8127-7.5987-2.5299c-3.4214 7.729-5.1046 11.9233-5.2532 12.6631zm10.0328-2.0056c1.2255.2796 2.2689 1.0194 2.9376 2.0835.6685 1.0642.8821 2.3254.6024 3.5509s-1.0195 2.269-2.0837 2.9376c-.7596.4767-1.6194.7224-2.494.7224-.3518 0-.7059-.0397-1.0568-.12-1.2255-.2797-2.2689-1.0194-2.9376-2.0836-.6686-1.0642-.8821-2.3253-.6024-3.5508.2796-1.2256 1.0195-2.269 2.0837-2.9376 1.0658-.6687 2.3302-.8813 3.5508-.6024z" fill="#ea5a47"/><path d="m37.0087 42.0773 12.1334-30.0448c-2.1868.6951-4.5552 1.2401-6.5 3.2139-2.4429 2.4793-4.2251 6.3918-4.2251 6.3918s-7.5842 16.5213-7.9522 17.3439c-.0134.03 6.5439 3.0952 6.5439 3.0952z" fill="#d0cfce"/><path d="m61.0114 24.5002s-15.2911 5.18-14.8124 4.9513c-.0013-.0006-.0027-.0042-.0039-.0047l-3.9462 1.6485-5.1362 12.9661 5.7091-2.7443.0016-.0152c-.1026.034 9.4146-5.6414 9.5884-5.731 4.0244-2.0782 7.0273-6.1439 8.5996-11.0707z" fill="#9b9b9a"/><path d="m21.8327 32.8842c-4.082-1.8222-10.3997.2072-12.2219 4.2873-1.8223 4.083-.1787 10.4317 3.9033 12.254 1.4775.6601 3.9424 1.0561 6.3301.5737.1025-.0205 3.3664-.2273 2.9776.0254l2.2852-1.0631c1.1782-2.9712 4.7164-11.342 5.0059-11.9878l-2.738 1.3137-.0062.0115c-.0176.2838-3.4774-4.4947-5.536-5.4147zm-.2485 10.3505c-.6457 1.0277-1.6534 1.7422-2.837 2.0124-.3389.0775-.6777.115-1.0118.115-2.0731 0-3.9503-1.4297-4.4298-3.5339-.2709-1.1836-.064-2.4015.5818-3.4293.6457-1.0277 1.6535-1.7422 2.837-2.0123 1.182-.2701 2.4008-.0631 3.4293.5819 1.0277.6456 1.7422 1.6534 2.0123 2.837.2701 1.1835.0639 2.4015-.5818 3.4292z" fill="#d22f27"/><g style="fill:none;stroke:#000;stroke-linecap:round;stroke-linejoin:round;stroke-miterlimit:10;stroke-width:2"><path d="m29.5835 39.6214c3.0581-6.8803 6.6525-14.6439 7.7996-16.8652 2.0717-4.012 5.7336-10.1903 12.5418-11.1943l-12.6613 30.5537"/><path d="m41.4622 50.9758c-1.1378-2.5493-3.3045-4.3145-5.7916-5.0337l1.593-3.8265-7.6801-2.4942c-2.5052 5.6398-4.8798 11.2159-5.0918 12.2646-.3613 1.7873-.6165 4.374.3383 6.5134 2.0499 4.5928 7.435 6.6542 12.0278 4.6044 4.5929-2.0499 6.6543-7.4351 4.6044-12.028zm-3.5499 4.7362c-.5596 2.4517-3.0009 3.9855-5.4525 3.4258-2.4517-.5597-3.9856-3.0008-3.4259-5.4525.5597-2.4518 3.0009-3.9856 5.4526-3.4259s3.9855 3.0009 3.4258 5.4526z"/><path d="m26.3726 38.2375c-.7838-2.3259-2.4964-4.3306-4.9143-5.4099-4.5928-2.0498-9.9779.0115-12.0279 4.6045-2.0499 4.5928.0116 9.9778 4.6044 12.0277 2.1394.955 4.7261.6996 6.5134.3384.2928-.0592.8983-.2697 1.7418-.5971m-3.541-3.9451c-2.4518.5597-4.893-.9741-5.4526-3.4259-.5597-2.4517.974-4.8928 3.4258-5.4525 2.4517-.5597 4.8929.974 5.4526 3.4257.5596 2.4518-.9741 4.893-3.4258 5.4527z"/><path d="m46.6251 30.3466 14.2472-5.9816c-1.004 6.8082-7.1823 10.4701-11.1943 12.5418-1.3118.6774-3.3115 1.6931-7.1655 3.463"/></g></svg>