<svg id="img" width="100%" height="100%" stroke="none" fill="none" version="1.1" viewBox="0 0 54.23 54.23" xmlns="http://www.w3.org/2000/svg">
	<path d="m16.85 41.56c-0.5439 2.69-0.4393 4.994 0.3049 6.66 2.054 4.6 7.466 6.677 12.07 4.62 2.229-0.9951 3.938-2.798 4.81-5.078 0.873-2.28 0.8058-4.763-0.1893-6.993-1.098-2.458-2.471-4.353-5.066-5.103-0.3095-0.0891-0.0393-1.131 0.0839-1.427l0.8396-2.813-7.599-2.53c-3.421 7.729-5.105 11.92-5.253 12.66zm10.03-2.006c1.226 0.2796 2.269 1.019 2.938 2.084 0.6685 1.064 0.8821 2.325 0.6024 3.551s-1.02 2.269-2.084 2.938c-0.7596 0.4767-1.619 0.7224-2.494 0.7224-0.3518 0-0.7059-0.0397-1.057-0.12-1.226-0.2797-2.269-1.019-2.938-2.084-0.6686-1.064-0.8821-2.325-0.6024-3.551 0.2796-1.226 1.02-2.269 2.084-2.938 1.066-0.6687 2.33-0.8813 3.551-0.6024z" fill="#ea5a47"/>
	<path d="m29.37 31.52 12.13-30.04c-2.187 0.6951-4.555 1.24-6.5 3.214-2.443 2.479-4.225 6.392-4.225 6.392s-7.584 16.52-7.952 17.34c-0.0134 0.03 6.544 3.095 6.544 3.095z" fill="#d0cfce"/>
	<path d="m53.37 13.94s-15.29 5.18-14.81 4.951c-0.0013-6e-4 -0.0027-0.0042-0.0039-0.0047l-3.946 1.648-5.136 12.97 5.709-2.744 0.0016-0.0152c-0.1026 0.034 9.415-5.641 9.588-5.731 4.024-2.078 7.027-6.144 8.6-11.07z" fill="#9b9b9a"/>
	<path d="m14.19 22.32c-4.082-1.822-10.4 0.2072-12.22 4.287-1.822 4.083-0.1787 10.43 3.903 12.25 1.478 0.6601 3.942 1.056 6.33 0.5737 0.1025-0.0205 3.366-0.2273 2.978 0.0254l2.285-1.063c1.178-2.971 4.716-11.34 5.006-11.99l-2.738 1.314-0.0062 0.0115c-0.0176 0.2838-3.477-4.495-5.536-5.415zm-0.2485 10.35c-0.6457 1.028-1.653 1.742-2.837 2.012-0.3389 0.0775-0.6777 0.115-1.012 0.115-2.073 0-3.95-1.43-4.43-3.534-0.2709-1.184-0.064-2.402 0.5818-3.429 0.6457-1.028 1.654-1.742 2.837-2.012 1.182-0.2701 2.401-0.0631 3.429 0.5819 1.028 0.6456 1.742 1.653 2.012 2.837 0.2701 1.184 0.0639 2.402-0.5818 3.429z" fill="#d22f27"/>
	<g transform="translate(-7.641 -10.56)" fill="none" stroke="#000" stroke-linecap="round" stroke-linejoin="round" stroke-miterlimit="10" stroke-width="2">
		<path d="m29.58 39.62c3.058-6.88 6.652-14.64 7.8-16.87 2.072-4.012 5.734-10.19 12.54-11.19l-12.66 30.55"/>
		<path d="m41.46 50.98c-1.138-2.549-3.304-4.314-5.792-5.034l1.593-3.826-7.68-2.494c-2.505 5.64-4.88 11.22-5.092 12.26-0.3613 1.787-0.6165 4.374 0.3383 6.513 2.05 4.593 7.435 6.654 12.03 4.604 4.593-2.05 6.654-7.435 4.604-12.03zm-3.55 4.736c-0.5596 2.452-3.001 3.986-5.452 3.426-2.452-0.5597-3.986-3.001-3.426-5.452 0.5597-2.452 3.001-3.986 5.453-3.426s3.986 3.001 3.426 5.453z"/>
		<path d="m26.37 38.24c-0.7838-2.326-2.496-4.331-4.914-5.41-4.593-2.05-9.978 0.0115-12.03 4.604-2.05 4.593 0.0116 9.978 4.604 12.03 2.139 0.955 4.726 0.6996 6.513 0.3384 0.2928-0.0592 0.8983-0.2697 1.742-0.5971m-3.541-3.945c-2.452 0.5597-4.893-0.9741-5.453-3.426-0.5597-2.452 0.974-4.893 3.426-5.452 2.452-0.5597 4.893 0.974 5.453 3.426 0.5596 2.452-0.9741 4.893-3.426 5.453z"/>
		<path d="m46.63 30.35 14.25-5.982c-1.004 6.808-7.182 10.47-11.19 12.54-1.312 0.6774-3.312 1.693-7.166 3.463"/>
	</g>
</svg>
