<svg width="100%" height="100%" id="img" fill="currentColor" stroke="none" version="1.1" viewBox="0 0 282 282" xmlns="http://www.w3.org/2000/svg">
	<g transform="matrix(1.345 0 0 1.435 -53.72 -78.29)" stroke-width="1.124">
		<path d="m91.49 76.4c-1.798-4.831-8.314-6.292-11.24-1.461-5.618 9.325-4.045 24.16-4.607 34.61-0.3371 5.73-0.7865 11.91-1.124 18.09-5.73 0.8988-11.35 1.348-17.19 1.798 0-4.607-0.1124-9.213-0.1124-13.82 0-7.528 0.3371-15.17 0.6741-22.7 0.1124-3.258 0.4494-6.517 1.011-9.775 0.8988-4.831 2.022-3.483-1.011-2.022 3.82-1.91 4.045-8.539 0-10.45-23.93-10.79-13.93 75.61-13.15 86.51 0.5618 7.865 11.8 7.865 12.13 0 0.3371-5.731 0.3371-11.35 0.3371-17.08 5.618 0.3371 11.35 0.4494 17.08 0.2247 0.2247 6.18 1.011 12.13 2.809 17.64 0.6741 2.134 2.472 4.381 4.831 4.831 2.359 0.4483 4.944 0.3371 6.854-1.124 1.348-1.011 1.461-2.472 0.8988-3.484 1.236-4.381 0.3371-8.764 0.1124-13.71-0.2247-9.55 0.1124-19.21 0.5618-28.76 0.8988-11.8 5.393-28.09 1.124-39.32z"/>
		<path d="m130.6 77.53c-0.1124-0.2247-0.3371-0.4494-0.4494-0.6741-1.91-2.584-4.045-3.258-7.078-2.921-3.595 0.4494-7.303 0.5618-11.01 0.7865-1.798-1.011-4.382-0.4494-5.281 1.573-1.685 1.461-2.022 3.932-1.236 5.842-4.045 25.28-4.382 51.8-4.607 77.19 0 4.157 3.258 6.629 6.966 6.966 9.55 1.011 22.25-0.7865 21.46-13.15-0.2247-3.819-4.157-6.517-7.752-4.494-2.697 1.573-4.494 2.697-6.517 3.258 0.1124-4.494 0.2247-8.988 0.4494-13.48 1.573 0.2247 3.146 0.3371 4.607 0.5618 3.146 0.4494 5.281-0.3371 7.191-2.921l0.1124-0.1135c1.124-1.461 1.124-4.607 0-6.066l-0.1124-0.1124c-1.91-2.472-4.045-3.371-7.191-2.921-1.348 0.2247-2.809 0.3371-4.269 0.4494 0.4494-14.04 0.5618-28.09-1.011-41.8 2.697 0.1124 5.505 0.2247 8.09 0.6741 3.034 0.4494 5.281-0.3371 7.078-2.921 0.1124-0.2247 0.3371-0.4494 0.4494-0.6741 1.011-1.235 1.011-3.707 0.1124-5.055z"/>
		<path d="m164.5 147.2c-2.921-0.8988-5.955-1.348-8.988-1.91-0.4483-21.68-1.909-43.7-4.494-65.17-0.6741-5.842-8.427-5.842-9.101 0-2.584 23.48-0.6741 47.64-0.6741 71.12 0 3.257 2.247 6.066 5.281 6.965 6.067 1.685 11.68 3.034 17.86 1.237 6.292-1.798 6.068-10.45 0.1124-12.25z"/>
		<path d="m196.3 152c-1.462 0.6752-2.697 1.573-3.932 2.135 0.1124-24.49 0.7854-49.32-5.056-73.26-1.124-4.719-8.54-3.708-8.427 1.124 0.7854 26.52-0.4494 52.81-0.9 79.32 0 3.371 2.247 5.841 5.281 6.965 8.988 3.371 17.41 1.462 21.46-7.865 2.471-5.617-2.472-11.23-8.427-8.425z"/>
		<path d="m238 84.72c-4.382-5.955-13.48-2.247-13.26 3.595h-0.6752c-3.146-0.1124-4.607 2.697-5.955 4.944-4.381 7.528-6.517 17.08-8.539 25.39-3.258 13.37-7.078 35.73 7.303 44.04 16.63 9.664 27.64-12.13 29.44-24.83 2.361-15.73 1.574-39.77-8.313-53.14zm-6.629 56.63c-0.6741 2.809-5.28 12.81-8.764 7.303-5.618-8.988 0.1135-27.19 2.247-36.52 1.124-4.831 2.361-9.662 3.708-14.49 0-0.1124 0-0.2247 0.1135-0.3371 3.146 7.865 3.932 17.41 4.269 25.28 0.3359 6.181-0.1124 12.58-1.574 18.76z"/>
	</g>
	<path d="m51.27 223.8q0-1.589-1.303-2.978-1.117-1.588-2.978-2.581-1.862-1.191-3.909-1.787-2.048-0.5957-3.909-0.5957-15.82 0-15.82 14.1 0 5.957 4.095 9.73 4.281 3.574 10.05 3.574 1.862 0 4.095-0.5957 2.42-0.5957 4.468-1.588 2.234-1.191 3.723-2.78 1.489-1.589 1.489-3.773zm0.1862 28q-1.862 2.978-6.701 5.56-4.84 2.581-11.73 2.581-5.212 0-9.866-1.986-4.468-1.986-8.005-5.758-3.351-3.971-5.398-9.332-1.862-5.56-1.862-12.51 0-14.3 7.632-21.84 7.818-7.545 20.29-7.545 5.771 0 9.494 1.787 3.909 1.588 5.957 4.17 0-5.361-1.117-8.538-0.9308-3.376-2.792-5.163-1.862-1.787-4.84-2.383-2.792-0.7942-6.329-0.7942-4.281 0-7.446 1.588-2.978 1.39-5.398 3.574l-6.888-12.51q3.723-4.368 9.308-6.751 5.585-2.383 12.47-2.383 12.84 0 20.66 8.34 7.818 8.141 7.818 22.44v54.8h-15.26zm34.25-13.9q3.351 2.581 9.121 4.17 5.771 1.589 10.98 1.589 5.771 0 9.494-2.184 3.909-2.383 3.909-7.545 0-3.574-2.42-5.957-2.42-2.383-6.143-4.17-3.723-1.986-8.377-3.773-4.468-1.787-8.563-3.971-5.585-2.78-9.68-7.148-3.909-4.368-3.909-11.91 0-6.354 2.42-10.72 2.606-4.567 6.701-7.347 4.281-2.978 9.494-4.17 5.212-1.39 10.8-1.39 6.329 0 12.1 2.383 5.957 2.184 8.749 4.17l-4.654 16.88q-3.165-2.78-7.818-4.766-4.468-1.986-9.866-1.986-1.862 0-3.909 0.1986-2.048 0.1986-3.909 0.9928-1.675 0.5957-2.792 2.184-1.117 1.39-1.117 3.773 0 2.383 2.048 3.971 2.234 1.588 5.585 2.978 3.351 1.39 7.446 2.978 4.095 1.39 8.005 3.376 2.978 1.588 5.585 3.574 2.792 1.986 4.84 4.766 2.048 2.581 3.351 6.155 1.303 3.376 1.303 7.942 0 7.347-2.42 12.51t-6.701 8.538q-4.095 3.177-9.866 4.766-5.585 1.39-11.91 1.39-5.398 0-11.54-1.589-5.957-1.787-11.91-5.56zm64.59 0q3.351 2.581 9.121 4.17 5.771 1.589 10.98 1.589 5.771 0 9.494-2.184 3.909-2.383 3.909-7.545 0-3.574-2.42-5.957-2.42-2.383-6.143-4.17-3.723-1.986-8.377-3.773-4.468-1.787-8.563-3.971-5.585-2.78-9.68-7.148-3.909-4.368-3.909-11.91 0-6.354 2.42-10.72 2.606-4.567 6.701-7.347 4.282-2.978 9.494-4.17 5.212-1.39 10.8-1.39 6.329 0 12.1 2.383 5.957 2.184 8.749 4.17l-4.654 16.88q-3.165-2.78-7.818-4.766-4.468-1.986-9.866-1.986-1.862 0-3.909 0.1986-2.048 0.1986-3.909 0.9928-1.675 0.5957-2.792 2.184-1.117 1.39-1.117 3.773 0 2.383 2.048 3.971 2.234 1.588 5.585 2.978 3.351 1.39 7.446 2.978 4.095 1.39 8.005 3.376 2.978 1.588 5.585 3.574 2.792 1.986 4.84 4.766 2.048 2.581 3.351 6.155 1.303 3.376 1.303 7.942 0 7.347-2.42 12.51-2.42 5.163-6.701 8.538-4.095 3.177-9.866 4.766-5.585 1.39-11.91 1.39-5.398 0-11.54-1.589-5.957-1.787-11.91-5.56zm91.77-48.05q-8.005 0-12.29 7.545-4.282 7.545-4.282 19.66 0 26.41 16.75 26.41 16.57 0 16.57-26.41 0-27.2-16.75-27.2zm0 70.29q-15.08 0-23.46-11.32-8.377-11.52-8.377-31.97 0-9.134 2.234-17.08 2.42-8.141 6.515-13.9 4.281-5.957 10.05-9.332 5.957-3.376 13.03-3.376 7.26 0 13.03 3.376 5.957 3.177 10.05 9.134 4.282 5.758 6.515 13.9 2.42 7.942 2.42 17.27 0 19.66-8.377 31.57-8.377 11.72-23.64 11.72z" stroke-width="7.21" aria-label="asso"/>
</svg>
