<svg width="100%" height="100%" id="img" fill="none" stroke="none" version="1.1" viewBox="0 0 282 282" xmlns="http://www.w3.org/2000/svg">
	<defs>
		<linearGradient id="b" x1="19.89" x2="40.52" y1="3.627" y2="36.7" gradientTransform="matrix(1 0 0 -1 7.812 65.44)" gradientUnits="userSpaceOnUse">
			<stop stop-color="#89356d" offset="0"/>
			<stop stop-color="#b94794" offset=".21"/>
		</linearGradient>
		<linearGradient id="a" x1="3.242" x2="37.69" y1="35.78" y2="23.38" gradientTransform="matrix(1 0 0 -1 0 44.74)" gradientUnits="userSpaceOnUse">
			<stop stop-color="#f59c1c" offset=".6"/>
			<stop stop-color="#c7702b" offset="1"/>
		</linearGradient>
		<linearGradient id="c" x1="4.322" x2="24.27" y1="33.65" y2="-.503" gradientTransform="matrix(1 0 0 -1 0 44.74)" gradientUnits="userSpaceOnUse">
			<stop stop-color="#498a63" offset="0"/>
			<stop stop-color="#61b984" offset=".25"/>
		</linearGradient>
	</defs>
	<g>
		<g stroke-width=".3525">
			<path d="m69.37 31.36c-2.419-6.933-11.19-9.03-15.12-2.096-7.558 13.38-5.442 34.67-6.198 49.66-0.4535 8.223-1.058 17.09-1.512 25.96-7.709 1.29-15.27 1.935-23.13 2.58 0-6.611-0.1512-13.22-0.1512-19.83 0-10.8 0.4535-21.77 0.907-32.57 0.1512-4.676 0.6047-9.352 1.36-14.03 1.209-6.933 2.721-4.999-1.36-2.902 5.14-2.741 5.442-12.25 0-15-32.2-15.48-18.74 108.5-17.69 124.2 0.7558 11.29 15.87 11.29 16.33 0 0.4535-8.225 0.4535-16.29 0.4535-24.51 7.558 0.4837 15.27 0.645 22.98 0.3225 0.3023 8.868 1.36 17.41 3.779 25.32 0.907 3.062 3.326 6.287 6.5 6.933 3.174 0.6434 6.651 0.4837 9.221-1.612 1.814-1.451 1.965-3.547 1.209-5 1.663-6.287 0.4535-12.58 0.1512-19.67-0.3023-13.71 0.1512-27.57 0.7558-41.28 1.209-16.93 7.256-40.31 1.512-56.43z" fill="url(#a)" stop-color="#000000" style="-inkscape-stroke:none;font-variation-settings:normal"/>
			<path d="m122 32.97c-0.1512-0.3225-0.4535-0.645-0.6047-0.9675-2.57-3.709-5.442-4.676-9.523-4.192-4.837 0.645-9.826 0.8062-14.81 1.129-2.419-1.451-5.895-0.645-7.105 2.257-2.267 2.096-2.721 5.643-1.663 8.385-5.442 36.28-5.895 74.33-6.198 110.8 0 5.966 4.384 9.513 9.372 9.997 12.85 1.451 29.93-1.129 28.87-18.87-0.3023-5.481-5.593-9.352-10.43-6.45-3.628 2.257-6.047 3.87-8.768 4.676 0.1512-6.45 0.3023-12.9 0.6047-19.35 2.116 0.3225 4.233 0.4837 6.198 0.8062 4.233 0.645 7.105-0.4837 9.675-4.192l0.1512-0.1629c1.512-2.096 1.512-6.611 0-8.705l-0.1512-0.1612c-2.57-3.547-5.442-4.837-9.675-4.192-1.814 0.3225-3.779 0.4837-5.744 0.645 0.6047-20.16 0.7558-40.31-1.36-59.98 3.628 0.1612 7.407 0.3225 10.88 0.9675 4.081 0.645 7.105-0.4837 9.523-4.192 0.1512-0.3225 0.4535-0.645 0.6047-0.9675 1.36-1.772 1.36-5.319 0.1512-7.254z" fill="url(#b)" stop-color="#000000" style="-inkscape-stroke:none;font-variation-settings:normal"/>
			<path d="m167.6 132.9c-3.93-1.29-8.012-1.935-12.09-2.741-0.6031-31.12-2.568-62.72-6.047-93.52-0.907-8.385-11.34-8.385-12.24 0-3.477 33.7-0.907 68.37-0.907 102.1 0 4.674 3.023 8.706 7.105 9.995 8.163 2.419 15.72 4.354 24.04 1.775 8.465-2.58 8.164-14.99 0.1512-17.58z" fill="url(#a)" stop-color="#000000" style="-inkscape-stroke:none;font-variation-settings:normal"/>
			<path d="m210.4 139.9c-1.967 0.9691-3.628 2.257-5.291 3.064 0.1512-35.15 1.057-70.79-6.802-105.1-1.512-6.772-11.49-5.321-11.34 1.612 1.057 38.05-0.6047 75.78-1.211 113.8 0 4.837 3.023 8.383 7.105 9.995 12.09 4.837 23.43 2.098 28.87-11.29 3.324-8.061-3.326-16.12-11.34-12.09z" fill="url(#c)" stop-color="#000000" style="-inkscape-stroke:none;font-variation-settings:normal"/>
		</g>
		<path d="m266.5 43.29c-5.895-8.546-18.14-3.225-17.84 5.16h-0.9085c-4.233-0.1612-6.198 3.87-8.012 7.095-5.894 10.8-8.768 24.51-11.49 36.44-4.384 19.19-9.523 51.28 9.826 63.21 22.37 13.87 37.19-17.41 39.61-35.63 3.176-22.57 2.118-57.08-11.18-76.27zm-8.919 81.27c-0.907 4.031-7.103 18.38-11.79 10.48-7.558-12.9 0.1527-39.02 3.023-52.4 1.512-6.933 3.176-13.87 4.988-20.8 0-0.1612 0-0.3225 0.1527-0.4837 4.233 11.29 5.291 24.99 5.744 36.28 0.452 8.87-0.1512 18.06-2.118 26.93z" fill="url(#b)" stop-color="#000000" stroke-width=".3525" style="-inkscape-stroke:none;font-variation-settings:normal"/>
		<path d="m51.27 223.8q0-1.589-1.303-2.978-1.117-1.588-2.978-2.581-1.862-1.191-3.909-1.787-2.048-0.5957-3.909-0.5957-15.82 0-15.82 14.1 0 5.957 4.095 9.73 4.281 3.574 10.05 3.574 1.862 0 4.095-0.5957 2.42-0.5957 4.468-1.588 2.234-1.191 3.723-2.78 1.489-1.589 1.489-3.773zm0.1862 28q-1.862 2.978-6.701 5.56-4.84 2.581-11.73 2.581-5.212 0-9.866-1.986-4.468-1.986-8.005-5.758-3.351-3.971-5.398-9.332-1.862-5.56-1.862-12.51 0-14.3 7.632-21.84 7.818-7.545 20.29-7.545 5.771 0 9.494 1.787 3.909 1.588 5.957 4.17 0-5.361-1.117-8.538-0.9308-3.376-2.792-5.163-1.862-1.787-4.84-2.383-2.792-0.7942-6.329-0.7942-4.281 0-7.446 1.588-2.978 1.39-5.398 3.574l-6.888-12.51q3.723-4.368 9.308-6.751 5.585-2.383 12.47-2.383 12.84 0 20.66 8.34 7.818 8.141 7.818 22.44v54.8h-15.26zm34.25-13.9q3.351 2.581 9.121 4.17 5.771 1.589 10.98 1.589 5.771 0 9.494-2.184 3.909-2.383 3.909-7.545 0-3.574-2.42-5.957-2.42-2.383-6.143-4.17-3.723-1.986-8.377-3.773-4.468-1.787-8.563-3.971-5.585-2.78-9.68-7.148-3.909-4.368-3.909-11.91 0-6.354 2.42-10.72 2.606-4.567 6.701-7.347 4.281-2.978 9.494-4.17 5.212-1.39 10.8-1.39 6.329 0 12.1 2.383 5.957 2.184 8.749 4.17l-4.654 16.88q-3.165-2.78-7.818-4.766-4.468-1.986-9.866-1.986-1.862 0-3.909 0.1986-2.048 0.1986-3.909 0.9928-1.675 0.5957-2.792 2.184-1.117 1.39-1.117 3.773 0 2.383 2.048 3.971 2.234 1.588 5.585 2.978 3.351 1.39 7.446 2.978 4.095 1.39 8.005 3.376 2.978 1.588 5.585 3.574 2.792 1.986 4.84 4.766 2.048 2.581 3.351 6.155 1.303 3.376 1.303 7.942 0 7.347-2.42 12.51t-6.701 8.538q-4.095 3.177-9.866 4.766-5.585 1.39-11.91 1.39-5.398 0-11.54-1.589-5.957-1.787-11.91-5.56zm64.59 0q3.351 2.581 9.121 4.17 5.771 1.589 10.98 1.589 5.771 0 9.494-2.184 3.909-2.383 3.909-7.545 0-3.574-2.42-5.957-2.42-2.383-6.143-4.17-3.723-1.986-8.377-3.773-4.468-1.787-8.563-3.971-5.585-2.78-9.68-7.148-3.909-4.368-3.909-11.91 0-6.354 2.42-10.72 2.606-4.567 6.701-7.347 4.282-2.978 9.494-4.17 5.212-1.39 10.8-1.39 6.329 0 12.1 2.383 5.957 2.184 8.749 4.17l-4.654 16.88q-3.165-2.78-7.818-4.766-4.468-1.986-9.866-1.986-1.862 0-3.909 0.1986-2.048 0.1986-3.909 0.9928-1.675 0.5957-2.792 2.184-1.117 1.39-1.117 3.773 0 2.383 2.048 3.971 2.234 1.588 5.585 2.978 3.351 1.39 7.446 2.978 4.095 1.39 8.005 3.376 2.978 1.588 5.585 3.574 2.792 1.986 4.84 4.766 2.048 2.581 3.351 6.155 1.303 3.376 1.303 7.942 0 7.347-2.42 12.51-2.42 5.163-6.701 8.538-4.095 3.177-9.866 4.766-5.585 1.39-11.91 1.39-5.398 0-11.54-1.589-5.957-1.787-11.91-5.56zm91.77-48.05q-8.005 0-12.29 7.545-4.282 7.545-4.282 19.66 0 26.41 16.75 26.41 16.57 0 16.57-26.41 0-27.2-16.75-27.2zm0 70.29q-15.08 0-23.46-11.32-8.377-11.52-8.377-31.97 0-9.134 2.234-17.08 2.42-8.141 6.515-13.9 4.281-5.957 10.05-9.332 5.957-3.376 13.03-3.376 7.26 0 13.03 3.376 5.957 3.177 10.05 9.134 4.282 5.758 6.515 13.9 2.42 7.942 2.42 17.27 0 19.66-8.377 31.57-8.377 11.72-23.64 11.72z" fill="#2e2f5e" stop-color="#000000" stroke-width=".3525" style="-inkscape-stroke:none;font-variation-settings:normal" aria-label="asso"/>
	</g>
</svg>
