<svg viewBox="0 0 48 48" xmlns="http://www.w3.org/2000/svg" xmlns:xlink="http://www.w3.org/1999/xlink"><linearGradient id="a" gradientUnits="userSpaceOnUse" x1="24" x2="24" y1="51.75" y2="-62.67"><stop offset="0" stop-color="#273a9b"/><stop offset=".56" stop-color="#202f65"/><stop offset="1" stop-color="#021e2f"/></linearGradient><linearGradient id="b" x1="9" x2="9" xlink:href="#a" y1="-12.88" y2="-27.38"/><linearGradient id="c" x1="16.5" x2="16.5" xlink:href="#a" y1="-12.88" y2="-27.38"/><linearGradient id="d" x2="24" xlink:href="#a" y1="-12.88" y2="-27.38"/><linearGradient id="e" x1="31.5" x2="31.5" xlink:href="#a" y1="-12.88" y2="-27.38"/><linearGradient id="f" x1="39" x2="39" xlink:href="#a" y1="-12.88" y2="-27.38"/><linearGradient id="g" x1="24" x2="24" xlink:href="#a" y1="-27.88" y2="-42.38"/><linearGradient id="h" x1="24" x2="24" xlink:href="#a" y1="-20.38" y2="-34.88"/><linearGradient id="i" x1="24" x2="24" xlink:href="#a" y1="-12.88" y2="-27.38"/><linearGradient id="j" x1="24" x2="24" xlink:href="#a" y1="-5.38" y2="-19.88"/><linearGradient id="k" x1="24" x2="24" xlink:href="#a" y1="2.12" y2="-12.38"/><linearGradient id="l" gradientUnits="userSpaceOnUse" x1="24" x2="24" y1="81" y2="-9.2"><stop offset="0" stop-color="#27e9de"/><stop offset=".52" stop-color="#03a4ec"/><stop offset="1" stop-color="#2547a8"/></linearGradient><linearGradient id="m" x2="24" xlink:href="#l" y1="56.25" y2="2.32"/><linearGradient id="n" gradientUnits="userSpaceOnUse" x1="9" x2="9" y1="34.37" y2="9.34"><stop offset="0" stop-color="#fff"/><stop offset=".52" stop-color="#cce2e6"/><stop offset="1" stop-color="#8fa1bb"/></linearGradient><linearGradient id="o" gradientUnits="userSpaceOnUse" x1="16.5" x2="16.5" y1="14.87" y2="-10.16"><stop offset="0" stop-color="#f3c57a"/><stop offset=".49" stop-color="#f39369"/><stop offset="1" stop-color="#e94867"/></linearGradient><linearGradient id="p" x1="31.5" x2="31.5" xlink:href="#o" y1="22.37" y2="-2.66"/><linearGradient id="q" x1="39" x2="39" xlink:href="#n" y1="22.37" y2="-2.66"/><linearGradient id="r" x1="24" x2="24" xlink:href="#n" y1="26.87" y2="1.84"/><rect fill="url(#a)" height="42" rx="6.27" width="42" x="3" y="3"/><path d="m9 45a.75.75 0 0 1 -.75-.75v-40.5a.75.75 0 0 1 .75-.75.75.75 0 0 1 .75.75v40.5a.75.75 0 0 1 -.75.75z" fill="url(#b)"/><path d="m16.5 45a.75.75 0 0 1 -.75-.75v-40.5a.75.75 0 0 1 .75-.75.75.75 0 0 1 .75.75v40.5a.75.75 0 0 1 -.75.75z" fill="url(#c)"/><path d="m24 45a.75.75 0 0 1 -.75-.75v-40.5a.75.75 0 0 1 .75-.75.75.75 0 0 1 .75.75v40.5a.75.75 0 0 1 -.75.75z" fill="url(#d)"/><path d="m31.5 45a.75.75 0 0 1 -.75-.75v-40.5a.75.75 0 0 1 .75-.75.75.75 0 0 1 .75.75v40.5a.75.75 0 0 1 -.75.75z" fill="url(#e)"/><path d="m39 45a.75.75 0 0 1 -.75-.75v-40.5a.75.75 0 0 1 .75-.75.75.75 0 0 1 .75.75v40.5a.75.75 0 0 1 -.75.75z" fill="url(#f)"/><rect fill="url(#g)" height="42" rx=".64" transform="matrix(0 1 -1 0 33 -15)" width="1.5" x="23.25" y="-12"/><rect fill="url(#h)" height="42" rx=".64" transform="matrix(0 1 -1 0 40.5 -7.5)" width="1.5" x="23.25" y="-4.5"/><rect fill="url(#i)" height="42" rx=".64" transform="matrix(0 1 -1 0 48 0)" width="1.5" x="23.25" y="3"/><rect fill="url(#j)" height="42" rx=".64" transform="matrix(0 1 -1 0 55.5 7.5)" width="1.5" x="23.25" y="10.5"/><rect fill="url(#k)" height="42" rx=".64" transform="matrix(0 1 -1 0 63 15)" width="1.5" x="23.25" y="18"/><path d="m38.73 45a6.27 6.27 0 0 0 6.27-6.27v-7.23h-6v-12h-7.5l-7.5 4.5-7.5-12-7.5 19.5h-6v7.23a6.27 6.27 0 0 0 6.27 6.27z" fill="url(#l)"/><path d="m39 19.5h-.75v3.75h-6v-3.75h-.75l-.75.45v3.3h-5.5l-1.25.75-.75-1.2v.45h-6v-6h2.53l-.94-1.5h-1.59v-2.55l-.75-1.2-.75 2v1.8h-.69l-.58 1.5h1.27v6h-3.58l-.58 1.5h4.15v6h-6v-1.2l-.74 1.9h-6v.11a.64.64 0 0 0 .64.64h4.61v6h-4.61a.63.63 0 0 0 -.63.61q0 .19 0 .38a.63.63 0 0 0 .61.51h4.63v4.5a.74.74 0 0 0 .66.73h.14a.74.74 0 0 0 .7-.74v-4.5h6v4.5a.75.75 0 0 0 1.5 0v-4.5h6v4.5a.75.75 0 0 0 1.5 0v-4.5h6v4.5a.75.75 0 0 0 1.5 0v-4.5h6v4.5a.74.74 0 0 0 .7.74h.14a.74.74 0 0 0 .66-.73v-4.5h4.61a.63.63 0 0 0 .61-.51q0-.19 0-.38a.63.63 0 0 0 -.63-.61h-4.59v-6h4.61a.64.64 0 0 0 .64-.64v-.11h-6zm-23.25 18.75h-6v-6h6zm7.5 0h-6v-6h6zm0-7.5h-6v-6h6zm7.5 7.5h-6v-6h6zm0-7.5h-6v-6h6zm7.5 7.5h-6v-6h6zm0-7.5h-6v-6h6z" fill="url(#m)"/><circle cx="9" cy="31.5" fill="url(#n)" r="1.5"/><circle cx="16.5" cy="12" fill="url(#o)" r="1.5"/><circle cx="31.5" cy="19.5" fill="url(#p)" r="1.5"/><circle cx="39" cy="19.5" fill="url(#q)" r="1.5"/><circle cx="24" cy="24" fill="url(#r)" r="1.5"/></svg>