<svg id="img" width="100%" height="100%" version="1.1" viewBox="0 0 43.5 43.5" fill="none" stroke="none" xmlns="http://www.w3.org/2000/svg">
  <linearGradient id="SVGID_1_" x1="4.322" x2="24.268" y1="33.651" y2="-.503" gradientTransform="matrix(1 0 0 -1 0 44.736)" gradientUnits="userSpaceOnUse">
    <stop offset="0" stop-color="#498a63"/>
    <stop offset=".25" stop-color="#61b984"/>
  </linearGradient>
  <path fill="url(#SVGID_1_)" d="M12.9 34.9c-6.6-7.6-2.2-26.8.6-26.8C8.1 7.9-1.1 11.5.2 24.4c1.5 12 12.3 20.4 24.1 18.9 3.8-.5 7.3-2 10.3-4.3-10.4 7.5-17.4.8-21.7-4.1z"/>
  <linearGradient id="SVGID_2_" x1="19.889" x2="40.524" y1="3.627" y2="36.697" gradientTransform="matrix(1 0 0 -1 0 44.736)" gradientUnits="userSpaceOnUse">
    <stop offset="0" stop-color="#89356d"/>
    <stop offset=".21" stop-color="#b94794"/>
  </linearGradient>
  <path fill="url(#SVGID_2_)" d="M37.2 21.9C31.7 33 14.8 37.7 12.9 34.8c3.3 4.9 11.5 11.6 21.8 4 9.4-7.3 11.1-21 3.8-30.5-2.3-3-5.4-5.3-8.9-6.8 11.7 5.3 10.5 14.6 7.6 20.4z"/>
  <linearGradient id="SVGID_3_" x1="3.242" x2="37.689" y1="35.782" y2="23.384" gradientTransform="matrix(1 0 0 -1 0 44.736)" gradientUnits="userSpaceOnUse">
    <stop offset=".6" stop-color="#f59c1c"/>
    <stop offset="1" stop-color="#c7702b"/>
  </linearGradient>
  <path fill="url(#SVGID_3_)" d="M13.5 8.1c11.9-1.3 25.4 11 23.7 13.9 3.3-5.8 4.1-15.1-7.5-20.4C18.6-2.9 6 2.5 1.6 13.7.2 17.2-.3 21 .2 24.7-.6 11.9 9.1 8.5 13.5 8.1z"/>
</svg>