<svg fill="currentColor" stroke="none" height="100%" viewBox="0 0 24 24" width="100%" id="img" xmlns="http://www.w3.org/2000/svg"><path d="m14.5 7.44993c0 1.38071-1.1193 2.5-2.5 2.5s-2.5-1.11929-2.5-2.5 1.1193-2.5 2.5-2.5 2.5 1.11929 2.5 2.5z"/><path d="m8.14079 13.1335c-.635.9038.25463 1.8665 1.3592 1.8665h5.00001c1.1046 0 1.9942-.9627 1.3592-1.8665-.5863-.8345-1.7091-1.6335-3.8592-1.6335-2.15012 0-3.2729.799-3.85921 1.6335z"/><path clip-rule="evenodd" d="m12 .00354004c6.0052 0 10.5649 5.78461996 9.272 11.57825996-.9968 4.6998-5.0291 9.2646-7.4356 11.6451-1.0306 1.0194-2.6422 1.0194-3.6728 0-2.4064-2.3804-6.43837-6.9448-7.43544-11.6444-1.29177-5.7864 3.26833-11.57895996 9.27184-11.57895996zm7.32 11.14265996c1.0168-4.55639-2.6076-9.14266-7.32-9.14266-4.70988 0-8.33562 4.59328-7.31989 9.14316.48875 2.1894 1.58408 4.155 2.86998 5.9726 1.3437 1.8993 2.86701 3.5452 4.02001 4.6857.2513.2486.6085.2486.8598 0 1.153-1.1406 2.6765-2.7866 4.0202-4.686 1.2858-1.8175 2.3815-3.7835 2.8699-5.9728z" fill-rule="evenodd"/></svg>